<?xml version="1.0" encoding="UTF-8" standalone="no"?>
<!-- Created with Inkscape (http://www.inkscape.org/) -->

<svg
   width="250"
   height="250"
   viewBox="0 0 66.14583 66.145835"
   version="1.1"
   id="svg1291"
   sodipodi:docname="linkedIN.svg"
   inkscape:version="1.3 (0e150ed6c4, 2023-07-21)"
   xmlns:inkscape="http://www.inkscape.org/namespaces/inkscape"
   xmlns:sodipodi="http://sodipodi.sourceforge.net/DTD/sodipodi-0.dtd"
   xmlns="http://www.w3.org/2000/svg"
   xmlns:svg="http://www.w3.org/2000/svg"
   xmlns:rdf="http://www.w3.org/1999/02/22-rdf-syntax-ns#"
   xmlns:cc="http://creativecommons.org/ns#"
   xmlns:dc="http://purl.org/dc/elements/1.1/">
  <defs
     id="defs1285" />
  <sodipodi:namedview
     id="base"
     pagecolor="#ffffff"
     bordercolor="#666666"
     borderopacity="1.0"
     inkscape:pageopacity="0.0"
     inkscape:pageshadow="2"
     inkscape:zoom="2.8"
     inkscape:cx="218.39286"
     inkscape:cy="157.32143"
     inkscape:document-units="px"
     inkscape:current-layer="g1905"
     showgrid="false"
     units="px"
     fit-margin-top="0"
     fit-margin-left="0"
     fit-margin-right="0"
     fit-margin-bottom="0"
     inkscape:window-width="1920"
     inkscape:window-height="991"
     inkscape:window-x="-9"
     inkscape:window-y="-9"
     inkscape:window-maximized="1"
     inkscape:showpageshadow="2"
     inkscape:pagecheckerboard="0"
     inkscape:deskcolor="#d1d1d1" />
  <metadata
     id="metadata1288">
    <rdf:RDF>
      <cc:Work
         rdf:about="">
        <dc:format>image/svg+xml</dc:format>
        <dc:type
           rdf:resource="http://purl.org/dc/dcmitype/StillImage" />
      </cc:Work>
    </rdf:RDF>
  </metadata>
  <g
     inkscape:label="Layer 1"
     inkscape:groupmode="layer"
     id="layer1"
     transform="translate(-27.063084,202.2851)">
    <g
       class="scaling-icon"
       id="g1917"
       transform="matrix(3.1498015,0,0,3.1498015,-171.37441,-202.2851)"
       style="stroke-width:0.084">
      <g
         class="logo-21dp"
         id="g1915"
         style="stroke-width:0.084">
        <g
           class="dpi-1"
           id="g1913"
           style="stroke-width:0.084">
          <g
             style="fill:none;fill-rule:evenodd;stroke-width:0.084"
             class="inbug"
             id="g1905">
            <path
               style="fill:#ffffff;stroke-width:0.084"
               inkscape:connector-curvature="0"
               d="M 82.479,0 H 64.583 C 63.727,0 63,0.677 63,1.511 V 19.488 C 63,20.323 63.477,21 64.333,21 H 82.229 C 83.086,21 84,20.323 84,19.488 V 1.511 C 84,0.677 83.336,0 82.479,0"
               class="bug-text-color"
               id="path1901" />
            <path
               style="fill:#020202;stroke-width:0.1512;stroke:none;stroke-opacity:1;stroke-dasharray:none;fill-opacity:1"
               inkscape:connector-curvature="0"
               d="M 82.479,0 H 64.583 C 63.727,0 63,0.677 63,1.511 V 19.488 C 63,20.323 63.477,21 64.333,21 H 82.229 C 83.086,21 84,20.323 84,19.488 V 1.511 C 84,0.677 83.336,0 82.479,0 Z M 71,8 h 2.827 v 1.441 h 0.031 C 74.289,8.664 75.562,7.875 77.136,7.875 80.157,7.875 81,9.479 81,12.45 V 18 H 78 V 12.997 C 78,11.667 77.469,10.5 76.227,10.5 74.719,10.5 74,11.521 74,13.197 V 18 h -3 z m -5,10 h 3 V 8 H 66 Z M 69.375,4.5 A 1.8745001,1.8745001 0 1 1 65.626,4.501 1.8745001,1.8745001 0 0 1 69.375,4.5 Z"
               class="background"
               id="path1903" />
            <path
               style="fill:#0a0005;fill-opacity:1;stroke:#000000;stroke-width:0.642857;stroke-dasharray:none;stroke-opacity:1;paint-order:fill markers stroke"
               d="M 96.25,154.82143 V 96.25 h 15.71429 15.71428 v 8.57143 8.57143 l 1.16072,-6.4e-4 c 0.986,-5.4e-4 1.31278,-0.24135 2.17106,-1.59989 4.24154,-6.71381 13.758,-12.682803 24.49017,-15.360925 8.92027,-2.225977 20.40406,-2.074627 30.01919,0.395635 4.3932,1.128675 10.60039,4.16911 13.60542,6.66428 7.65154,6.3533 12.02147,16.67637 13.54314,31.99295 0.22574,2.27221 0.36744,18.00804 0.36744,40.80357 v 37.10502 h -16.57912 -16.57912 l -0.15922,-32.23215 c -0.13886,-28.10934 -0.23493,-32.62043 -0.75107,-35.26785 -0.91029,-4.6691 -1.55413,-6.67925 -3.2984,-10.29798 -2.84097,-5.89401 -7.63479,-9.88122 -13.39689,-11.14272 -3.33439,-0.73001 -10.92773,-0.28155 -14.41475,0.85133 -9.10594,2.95836 -14.46085,9.51381 -17.01727,20.83243 -0.77982,3.45267 -0.79413,4.00019 -0.92457,35.38194 l -0.1325,31.875 H 113.0164 96.25 Z"
               id="path1"
               transform="matrix(0.084,0,0,0.084,63,0)" />
            <path
               style="fill:#0a0005;fill-opacity:1;stroke:#000000;stroke-width:0.642857;stroke-dasharray:none;stroke-opacity:1;paint-order:fill markers stroke"
               d="M 36.964286,154.82143 V 96.25 h 16.607143 16.607142 v 58.57143 58.57143 H 53.571429 36.964286 Z"
               id="path2"
               transform="matrix(0.084,0,0,0.084,63,0)" />
            <path
               style="fill:#0a0005;fill-opacity:1;stroke:#000000;stroke-width:0.642857;stroke-dasharray:none;stroke-opacity:1;paint-order:fill markers stroke"
               d="m 48.464898,74.099229 c -3.909196,-1.024147 -6.677097,-2.644536 -9.726915,-5.694354 -3.093547,-3.093548 -4.679204,-5.833304 -5.711038,-9.867736 -0.894027,-3.495609 -0.894027,-6.435812 0,-9.931421 1.027392,-4.017066 2.618814,-6.772465 5.711038,-9.888133 4.088011,-4.119003 9.393296,-6.372403 15.044173,-6.389955 2.658464,-0.0083 7.00036,1.135981 9.722827,2.562298 2.897234,1.517878 7.230067,5.850712 8.747946,8.747946 4.4106,8.418679 2.918821,18.071285 -3.827658,24.767001 -3.115666,3.092221 -5.871066,4.683646 -9.888132,5.711039 -3.425334,0.87605 -6.685253,0.870654 -10.072241,-0.01669 z"
               id="path3"
               transform="matrix(0.084,0,0,0.084,63,0)" />
            <path
               style="fill:#020202;fill-opacity:1;stroke:none;stroke-width:0.642857;stroke-dasharray:none;stroke-opacity:1;paint-order:fill markers stroke"
               d="M 96.607143,154.82143 V 96.607143 h 15.357147 15.35714 v 8.571427 8.57143 l 1.16071,-0.005 c 1.47019,-0.007 1.62295,-0.11997 3.3708,-2.49453 5.37806,-7.30639 15.93262,-13.155003 27.43277,-15.201352 4.36293,-0.776342 14.58395,-0.895502 19.2104,-0.223959 8.76285,1.271954 16.63868,4.552751 21.30868,8.876461 6.33611,5.86626 9.95188,13.86072 12.00764,26.54885 0.53738,3.31671 0.62646,8.25831 0.77097,42.76786 l 0.16338,39.01785 h -16.2841 -16.28411 l -0.0241,-21.51785 c -0.0133,-11.83482 -0.15548,-26.90179 -0.31599,-33.48215 -0.27691,-11.35144 -0.34081,-12.14722 -1.2475,-15.53571 -2.7513,-10.28221 -8.6904,-16.88292 -16.56939,-18.4152 -2.8249,-0.54938 -10.07772,-0.23938 -13.09299,0.55961 -8.35195,2.21313 -14.27623,8.09413 -17.26743,17.1413 -1.89207,5.72273 -1.86561,5.22409 -2.08936,39.375 l -0.20883,31.875 h -16.3779 -16.377907 z"
               id="path4"
               transform="matrix(0.084,0,0,0.084,63,0)" />
            <path
               style="fill:#020202;fill-opacity:1;stroke:none;stroke-width:0.642857;stroke-dasharray:none;stroke-opacity:1;paint-order:fill markers stroke"
               d="M 37.321429,154.82143 V 96.607143 h 16.25 16.25 v 58.214287 58.21428 h -16.25 -16.25 z"
               id="path5"
               transform="matrix(0.084,0,0,0.084,63,0)" />
            <path
               style="fill:#13ae4e;fill-opacity:1;stroke:none;stroke-width:0.642857;stroke-dasharray:none;stroke-opacity:1;paint-order:fill markers stroke"
               d="m 96.414947,212.94643 c -0.09338,-0.24554 -0.128513,-26.5625 -0.07808,-58.48214 l 0.0917,-58.035719 H 111.96429 127.5 l 0.17857,8.392859 0.17857,8.39286 0.86606,0.12231 c 0.65488,0.0925 1.23324,-0.27761 2.37199,-1.51786 0.82826,-0.90209 1.41203,-1.64017 1.29726,-1.64017 -0.11477,0 0.73952,-0.95319 1.89843,-2.1182 1.15891,-1.16502 2.22342,-2.04632 2.36558,-1.95846 0.14216,0.0879 0.37477,-0.0284 0.5169,-0.25841 0.1614,-0.26115 0.10362,-0.32247 -0.15389,-0.16332 -0.22678,0.14016 -0.41233,0.10338 -0.41233,-0.0817 0,-0.27691 0.62799,-0.59607 1.78572,-0.90755 0.0982,-0.0264 0.54604,-0.41551 0.99517,-0.86464 0.44913,-0.44913 0.97258,-0.72019 1.16323,-0.60236 0.19065,0.11782 0.4427,-0.0361 0.56012,-0.34207 0.1174,-0.30596 0.3405,-0.47779 0.49576,-0.38183 0.15527,0.096 0.37836,-0.0759 0.49577,-0.38183 0.11741,-0.30597 0.37532,-0.45627 0.57314,-0.33401 0.19781,0.12225 0.35966,-0.019 0.35966,-0.314 0,-0.34405 0.25605,-0.48698 0.71429,-0.39873 0.39286,0.0757 0.71429,-0.0234 0.71429,-0.22016 0,-0.19674 0.16071,-0.25838 0.35714,-0.13698 0.19643,0.1214 0.35714,0.041 0.35714,-0.17858 0,-0.21961 0.16072,-0.29997 0.35714,-0.17857 0.19643,0.1214 0.35715,-0.003 0.35715,-0.27654 0,-0.47664 0.18365,-0.548771 1.78571,-0.701348 0.39286,-0.03741 0.71429,-0.260508 0.71429,-0.495763 0,-0.244291 0.38292,-0.3857 0.89285,-0.329724 0.49108,0.05391 0.89286,-0.0406 0.89286,-0.21002 0,-0.169417 0.24107,-0.308031 0.53572,-0.308031 0.29464,0 0.53571,-0.142857 0.53571,-0.31746 0,-0.174603 0.20089,-0.302172 0.44643,-0.283487 0.97286,0.07404 3.125,-0.572501 3.125,-0.938799 0,-0.271977 0.1211,-0.267725 0.40297,0.01415 0.24673,0.246722 0.62755,0.284528 0.98215,0.0975 1.76409,-0.930449 3.37792,-1.088822 12.36488,-1.213414 6.28182,-0.08709 13.583,0.482193 14.62967,1.140696 0.20368,0.128143 0.65158,0.186718 0.99533,0.130167 0.34375,-0.05655 0.625,0.07883 0.625,0.300837 0,0.249061 0.2907,0.311397 0.75901,0.162759 0.54501,-0.172978 0.68344,-0.118628 0.49099,0.192767 -0.19245,0.311394 -0.054,0.365744 0.49099,0.192766 0.44051,-0.139814 0.75901,-0.08564 0.75901,0.129101 0,0.2035 0.24107,0.277493 0.53571,0.164428 0.29465,-0.113065 0.53572,-0.03271 0.53572,0.178571 0,0.211563 0.26699,0.281688 0.5943,0.156089 0.3969,-0.152303 0.50937,-0.09062 0.33859,0.18569 -0.16706,0.270319 -0.0636,0.340014 0.29856,0.201054 0.30563,-0.117281 0.55426,-0.02589 0.55426,0.203739 0,0.229037 0.13434,0.333401 0.29854,0.231921 0.1642,-0.101481 1.29184,0.285243 2.50587,0.859386 1.21402,0.574145 2.29673,1.038625 2.40602,1.032195 0.1093,-0.006 0.58467,0.40475 1.0564,0.91375 0.47173,0.509 0.98235,0.94718 1.13471,0.97374 0.99963,0.17422 1.52703,0.42003 1.52703,0.71173 0,0.18511 -0.18554,0.22189 -0.41232,0.0817 -0.25752,-0.15915 -0.31529,-0.0978 -0.15389,0.16332 0.14213,0.22999 0.38101,0.34239 0.53083,0.2498 0.14982,-0.0926 1.05678,0.628 2.01547,1.60132 0.95868,0.97332 1.59716,1.76967 1.41884,1.76967 -0.17832,0 0.28304,0.55623 1.02525,1.23607 0.81905,0.75022 1.24593,1.40362 1.08604,1.66233 -0.14489,0.23443 -0.11807,0.33793 0.0596,0.22998 0.17767,-0.10795 0.53027,0.0279 0.78355,0.30196 0.37592,0.40671 0.37592,0.50023 0,0.50909 -0.31562,0.007 -0.28843,0.11165 0.0864,0.3312 0.30082,0.17619 1.02403,1.33648 1.60715,2.57843 0.58311,1.24194 1.22092,2.37616 1.41735,2.52047 0.19643,0.14431 0.24526,0.26485 0.10852,0.26786 -0.13674,0.003 0.0697,0.92957 0.45887,2.05904 0.38912,1.12946 0.94978,3.01785 1.24592,4.19643 0.29613,1.17857 0.63666,2.38392 0.75673,2.67857 0.12007,0.29464 0.18592,0.80272 0.14633,1.12907 -0.0396,0.32635 0.0991,0.69906 0.30808,0.82825 0.20903,0.12919 0.29852,0.36682 0.19887,0.52806 -0.0996,0.16124 0.0746,2.03853 0.38729,4.17175 0.31266,2.13322 0.54206,4.0393 0.50979,4.23572 -0.2613,1.59015 -0.28974,24.49862 -0.0297,23.92858 0.19913,-0.43656 0.3004,9.6312 0.26042,25.89285 l -0.0654,26.60715 -16.30151,0.0929 -16.30152,0.0929 -0.23381,-5.45 c -0.1286,-2.99751 -0.27312,-16.61965 -0.32117,-30.27144 -0.0954,-27.09958 -0.22097,-31.80119 -0.87045,-32.58377 -0.23629,-0.28471 -0.34343,-0.60386 -0.23807,-0.70922 0.28795,-0.28795 -0.6125,-3.63201 -1.05921,-3.93368 -0.2137,-0.14432 -0.27776,-0.26485 -0.14236,-0.26786 0.37081,-0.008 -0.7988,-3.21975 -1.17261,-3.21975 -0.17797,0 -0.28536,-0.12054 -0.23865,-0.26786 0.15162,-0.47829 -0.87498,-2.58929 -1.2592,-2.58929 -0.20534,0 -0.27254,-0.1008 -0.14934,-0.22399 0.32491,-0.32492 -1.57654,-2.93301 -3.37645,-4.63123 -1.69232,-1.59672 -3.87136,-3.1852 -3.87136,-2.82216 0,0.12562 -0.25403,-0.0256 -0.56451,-0.3361 -0.31048,-0.31048 -0.71226,-0.47319 -0.89286,-0.36158 -0.18059,0.11161 -0.32835,0.0455 -0.32835,-0.14691 0,-0.31771 -1.70639,-0.9005 -2.74265,-0.93671 -0.23167,-0.008 -0.5397,-0.1332 -0.68452,-0.27801 -0.39266,-0.39266 -9.71026,-0.31944 -9.95604,0.0782 -0.1161,0.18785 -0.43466,0.25575 -0.70792,0.15089 -0.64462,-0.24736 -4.91817,0.84604 -5.22084,1.33576 -0.12769,0.20662 -0.37492,0.35565 -0.54938,0.33119 -0.53878,-0.0756 -2.99579,1.14431 -2.99579,1.48736 0,0.17819 -0.13261,0.24202 -0.29468,0.14185 -0.54554,-0.33716 -4.66087,3.34239 -6.25229,5.59022 -1.79153,2.53048 -2.88948,4.54714 -2.48006,4.55522 0.15237,0.003 0.0773,0.1323 -0.16675,0.2873 -0.56405,0.35821 -2.32299,5.34701 -2.04425,5.79803 0.11482,0.18578 0.0285,0.33778 -0.19191,0.33778 -0.22037,0 -0.3544,0.28125 -0.29785,0.625 0.0565,0.34375 -0.0221,0.82408 -0.17471,1.0674 -0.69883,1.11397 -0.94483,10.50344 -0.93867,35.82716 0.004,15.03755 -0.10092,28.2563 -0.2324,29.375 l -0.23906,2.03401 h -16.39061 c -12.78384,0 -16.427965,-0.0982 -16.560383,-0.44643 z"
               id="path6"
               transform="matrix(0.084,0,0,0.084,63,0)" />
            <path
               style="fill:#13ae4e;fill-opacity:1;stroke:none;stroke-width:0.642857;stroke-dasharray:none;stroke-opacity:1;paint-order:fill markers stroke"
               d="m 37.130617,212.95004 c -0.09414,-0.24752 -0.129898,-26.56611 -0.07946,-58.48575 l 0.0917,-58.035719 H 53.571429 70 v 58.392859 58.39286 l -16.34911,0.0929 c -12.888969,0.0732 -16.385334,-0.002 -16.520273,-0.35714 z"
               id="path7"
               transform="matrix(0.084,0,0,0.084,63,0)" />
            <path
               style="fill:#13ae4e;fill-opacity:1;stroke:none;stroke-width:0.642857;stroke-dasharray:none;stroke-opacity:1;paint-order:fill markers stroke"
               d="m 49.490005,73.909643 c -4.035706,-0.8752 -7.291407,-2.695893 -10.426152,-5.830639 -3.186133,-3.186132 -4.956736,-6.393628 -5.845482,-10.58925 -0.663184,-3.130783 -0.663184,-4.705868 0,-7.836651 1.722523,-8.131742 8.220249,-14.625037 16.472143,-16.460909 4.723083,-1.050787 10.769445,0.118422 14.944947,2.889962 2.169192,1.439827 5.374021,4.704001 6.732978,6.857655 2.474143,3.92098 3.548807,9.868909 2.598454,14.381618 -1.739897,8.261803 -8.298592,14.870621 -16.477139,16.603057 -3.030625,0.641968 -4.987819,0.638335 -7.999749,-0.01484 z"
               id="path8"
               transform="matrix(0.084,0,0,0.084,63,0)" />
            <path
               style="fill:#ff69b4;fill-opacity:1;stroke:#000000;stroke-width:4.40000007;stroke-dasharray:none;stroke-opacity:1;paint-order:fill markers stroke"
               d="m 102.76786,213.12558 -6.160717,-0.10673 V 154.813 96.607143 h 15.301057 15.30106 l 0.23465,5.949897 c 0.12907,3.27244 0.23466,7.04923 0.23466,8.39286 v 2.44296 h 1.02745 c 0.84078,0 1.59019,-0.61306 4.12497,-3.37445 1.70363,-1.85595 3.41977,-3.47673 3.81364,-3.60174 0.39386,-0.125 0.65561,-0.4088 0.58166,-0.63066 -0.12327,-0.36979 0.5071,-0.81794 2.95228,-2.09887 0.49107,-0.25725 1.16644,-0.71475 1.50081,-1.01667 0.58856,-0.53143 5.2549,-2.938413 7.07062,-3.647155 0.49107,-0.191682 1.375,-0.565042 1.96429,-0.829687 1.2741,-0.572193 4.1656,-1.384673 4.57462,-1.285418 0.15889,0.03856 1.04282,-0.189555 1.96428,-0.506921 1.20183,-0.41393 3.5429,-0.630224 8.28252,-0.76523 8.27691,-0.235763 15.21557,0.30777 19.28572,1.510727 6.04066,1.785353 10.72468,3.801834 11.93035,5.136044 0.37419,0.41408 0.97183,0.75288 1.32808,0.75288 0.37336,0 0.57475,0.19015 0.47546,0.44892 -0.0948,0.2469 0.18372,0.60851 0.6188,0.80357 0.43509,0.19506 1.81203,1.56001 3.05986,3.03323 2.67146,3.15397 2.77306,3.28469 2.91452,3.75 0.0597,0.19643 0.39174,0.75893 0.73781,1.25 1.3462,1.91022 2.47304,4.66264 3.87887,9.47448 2.5707,8.79894 2.53827,8.19534 2.79576,52.04338 l 0.23016,39.19642 h -13.93245 c -7.66284,0 -14.90262,0.10141 -16.0884,0.22535 l -2.15595,0.22534 -0.2426,-1.43596 c -0.13343,-0.78977 -0.38126,-15.87778 -0.55072,-33.52891 -0.22157,-23.07857 -0.42929,-32.54438 -0.73953,-33.7001 -2.04498,-7.61812 -4.21254,-12.05812 -7.48846,-15.33927 -2.47229,-2.47622 -5.631,-4.31868 -8.66329,-5.05323 -2.09228,-0.50685 -12.25358,-0.22653 -14.35827,0.39609 -6.3943,1.89161 -11.979,6.53601 -14.81169,12.31784 -0.86612,1.76785 -2.03858,4.82143 -2.60546,6.78571 l -1.0307,3.57143 -0.33544,32.14286 c -0.18449,17.67857 -0.41625,32.50446 -0.51502,32.94643 l -0.17959,0.80357 -10.08248,-0.0803 c -5.54536,-0.0442 -12.8548,-0.1283 -16.24319,-0.187 z"
               id="path9"
               transform="matrix(0.084,0,0,0.084,63,0)" />
            <path
               style="fill:#ff69b4;fill-opacity:1;stroke:#000000;stroke-width:4.40000007;stroke-dasharray:none;stroke-opacity:1;paint-order:fill markers stroke"
               d="M 37.321429,154.82143 V 96.607143 h 16.25 16.25 v 58.214287 58.21428 h -16.25 -16.25 z"
               id="path10"
               transform="matrix(0.084,0,0,0.084,63,0)" />
            <path
               style="fill:#ff69b4;fill-opacity:1;stroke:#000000;stroke-width:4.40000007;stroke-dasharray:none;stroke-opacity:1;paint-order:fill markers stroke"
               d="m 48.824812,73.551539 c -4.322712,-1.163553 -8.447061,-3.91981 -11.33091,-7.572322 -6.538587,-8.281381 -5.816182,-19.153079 1.77388,-26.695694 5.453305,-5.419215 12.184049,-7.354409 19.273132,-5.541327 3.902691,0.99814 6.03826,2.26728 9.328025,5.543518 3.264329,3.250908 4.52234,5.369584 5.531722,9.316229 1.807525,7.06735 -0.148904,13.871765 -5.537929,19.260789 -5.199373,5.199372 -12.619247,7.416539 -19.03792,5.688807 z"
               id="path11"
               transform="matrix(0.084,0,0,0.084,63,0)" />
          </g>
          <g
             style="fill:#FF69B4;stroke-width:0.084"
             class="linkedin-text"
             id="g1911" />
        </g>
      </g>
    </g>
  </g>
</svg>
